  0
SECTION
  2
HEADER
  9
$ACADVER
  1
AC1014
  9
$HANDSEED
  5
FFFF
  9
$MEASUREMENT
 70
     1
  0
ENDSEC
  0
SECTION
  2
TABLES
  0
TABLE
  2
VPORT
  5
8
330
0
100
AcDbSymbolTable
 70
     4
  0
VPORT
  5
2E
330
8
100
AcDbSymbolTableRecord
100
AcDbViewportTableRecord
  2
*ACTIVE
 70
     0
 10
0.0
 20
0.0
 11
1.0
 21
1.0
 12
210.0
 22
148.5
 13
0.0
 23
0.0
 14
10.0
 24
10.0
 15
10.0
 25
10.0
 16
0.0
 26
0.0
 36
1.0
 17
0.0
 27
0.0
 37
0.0
 40
341.0
 41
1.24
 42
50.0
 43
0.0
 44
0.0
 50
0.0
 51
0.0
 71
     0
 72
   100
 73
     1
 74
     3
 75
     0
 76
     0
 77
     0
 78
     0
  0
ENDTAB
  0
TABLE
  2
LTYPE
  5
5
330
0
100
AcDbSymbolTable
 70
     1
  0
LTYPE
  5
14
330
5
100
AcDbSymbolTableRecord
100
AcDbLinetypeTableRecord
  2
BYBLOCK
 70
     0
  3

 72
    65
 73
     0
 40
0.0
  0
LTYPE
  5
15
330
5
100
AcDbSymbolTableRecord
100
AcDbLinetypeTableRecord
  2
BYLAYER
 70
     0
  3

 72
    65
 73
     0
 40
0.0
  0
LTYPE
  5
16
330
5
100
AcDbSymbolTableRecord
100
AcDbLinetypeTableRecord
  2
CONTINUOUS
 70
     0
  3
Solid line
 72
    65
 73
     0
 40
0.0
  0
ENDTAB
  0
TABLE
  2
LAYER
  5
2
100
AcDbSymbolTable
 70
2
  0
LAYER
  5
50
100
AcDbSymbolTableRecord
100
AcDbLayerTableRecord
  2
0
 70
0
  6
CONTINUOUS
  0
LAYER
  5
51
100
AcDbSymbolTableRecord
100
AcDbLayerTableRecord
  2
Layer_1
 70
0
  6
CONTINUOUS
  0
ENDTAB
  0
TABLE
  2
STYLE
  5
3
330
0
100
AcDbSymbolTable
 70
     1
  0
STYLE
  5
11
330
3
100
AcDbSymbolTableRecord
100
AcDbTextStyleTableRecord
  2
STANDARD
 70
     0
 40
0.0
 41
1.0
 50
0.0
 71
     0
 42
2.5
  3
txt
  4

  0
ENDTAB
  0
TABLE
  2
VIEW
  5
6
330
0
100
AcDbSymbolTable
 70
     0
  0
ENDTAB
  0
TABLE
  2
UCS
  5
7
330
0
100
AcDbSymbolTable
 70
     0
  0
ENDTAB
  0
TABLE
  2
APPID
  5
9
330
0
100
AcDbSymbolTable
 70
     2
  0
APPID
  5
12
330
9
100
AcDbSymbolTableRecord
100
AcDbRegAppTableRecord
  2
ACAD
 70
     0
  0
ENDTAB
  0
TABLE
  2
DIMSTYLE
  5
A
330
0
100
AcDbSymbolTable
 70
     1
  0
DIMSTYLE
105
27
330
A
100
AcDbSymbolTableRecord
100
AcDbDimStyleTableRecord
  2
ISO-25
 70
     0
  3

  4

  5

  6

  7

 40
1.0
 41
2.5
 42
0.625
 43
3.75
 44
1.25
 45
0.0
 46
0.0
 47
0.0
 48
0.0
140
2.5
141
2.5
142
0.0
143
0.03937007874016
144
1.0
145
0.0
146
1.0
147
0.625
 71
     0
 72
     0
 73
     0
 74
     0
 75
     0
 76
     0
 77
     1
 78
     8
170
     0
171
     3
172
     1
173
     0
174
     0
175
     0
176
     0
177
     0
178
     0
270
     2
271
     2
272
     2
273
     2
274
     3
340
11
275
     0
280
     0
281
     0
282
     0
283
     0
284
     8
285
     0
286
     0
287
     3
288
     0
  0
ENDTAB
  0
TABLE
  2
BLOCK_RECORD
  5
1
330
0
100
AcDbSymbolTable
 70
     1
  0
BLOCK_RECORD
  5
1F
330
1
100
AcDbSymbolTableRecord
100
AcDbBlockTableRecord
  2
*MODEL_SPACE
  0
BLOCK_RECORD
  5
1B
330
1
100
AcDbSymbolTableRecord
100
AcDbBlockTableRecord
  2
*PAPER_SPACE
  0
ENDTAB
  0
ENDSEC
  0
SECTION
  2
BLOCKS
  0
BLOCK
  5
20
330
1F
100
AcDbEntity
  8
0
100
AcDbBlockBegin
  2
*MODEL_SPACE
 70
     0
 10
0.0
 20
0.0
 30
0.0
  3
*MODEL_SPACE
  1

  0
ENDBLK
  5
21
330
1F
100
AcDbEntity
  8
0
100
AcDbBlockEnd
  0
BLOCK
  5
1C
330
1B
100
AcDbEntity
 67
     1
  8
0
100
AcDbBlockBegin
  2
*PAPER_SPACE
  1

  0
ENDBLK
  5
1D
330
1B
100
AcDbEntity
 67
     1
  8
0
100
AcDbBlockEnd
  0
ENDSEC
  0
SECTION
  2
ENTITIES
  0
LWPOLYLINE
  5
100
100
AcDbEntity
  8
Layer_1
 62
7
100
AcDbPolyline
 90
3
 70
0
 10
0.005192
 20
120.430201
 30
0.0
 10
0.000000
 20
113.588099
 30
0.0
 10
0.000000
 20
30.285226
 30
0.0
  0
LWPOLYLINE
  5
101
100
AcDbEntity
  8
Layer_1
 62
7
100
AcDbPolyline
 90
24
 70
0
 10
30.003750
 20
-0.003611
 30
0.0
 10
32.755834
 20
0.125990
 30
0.0
 10
35.440377
 20
0.506675
 30
0.0
 10
38.046225
 20
1.126264
 30
0.0
 10
40.562221
 20
1.972580
 30
0.0
 10
42.977211
 20
3.033445
 30
0.0
 10
45.280040
 20
4.296679
 30
0.0
 10
47.459552
 20
5.750105
 30
0.0
 10
49.504592
 20
7.381544
 30
0.0
 10
51.404004
 20
9.178818
 30
0.0
 10
53.146635
 20
11.129749
 30
0.0
 10
54.721328
 20
13.222158
 30
0.0
 10
56.116929
 20
15.443866
 30
0.0
 10
57.322282
 20
17.782696
 30
0.0
 10
58.326231
 20
20.226469
 30
0.0
 10
59.117623
 20
22.763006
 30
0.0
 10
59.685301
 20
25.380130
 30
0.0
 10
59.713591
 20
27.719439
 30
0.0
 10
59.747672
 20
28.241569
 30
0.0
 10
59.535517
 20
29.705719
 30
0.0
 10
59.189728
 20
30.743125
 30
0.0
 10
58.605532
 20
31.958525
 30
0.0
 10
57.723980
 20
33.332748
 30
0.0
 10
56.486123
 20
34.846625
 30
0.0
  0
LWPOLYLINE
  5
102
100
AcDbEntity
  8
Layer_1
 62
7
100
AcDbPolyline
 90
17
 70
0
 10
0.000000
 20
30.285226
 30
0.0
 10
0.154929
 20
27.214660
 30
0.0
 10
0.609654
 20
24.226775
 30
0.0
 10
1.349087
 20
21.337497
 30
0.0
 10
2.358135
 20
18.562751
 30
0.0
 10
3.621708
 20
15.918464
 30
0.0
 10
5.124715
 20
13.420561
 30
0.0
 10
6.852067
 20
11.084969
 30
0.0
 10
8.788671
 20
8.927613
 30
0.0
 10
10.919439
 20
6.964419
 30
0.0
 10
13.229278
 20
5.211314
 30
0.0
 10
15.703099
 20
3.684223
 30
0.0
 10
18.325810
 20
2.399072
 30
0.0
 10
21.082321
 20
1.371787
 30
0.0
 10
23.957542
 20
0.618294
 30
0.0
 10
26.936382
 20
0.154520
 30
0.0
 10
30.003750
 20
-0.003611
 30
0.0
  0
LWPOLYLINE
  5
103
100
AcDbEntity
  8
Layer_1
 62
7
100
AcDbPolyline
 90
10
 70
0
 10
3.278506
 20
29.928866
 30
0.0
 10
3.278506
 20
30.285226
 30
0.0
 10
3.278506
 20
31.178721
 30
0.0
 10
3.278506
 20
103.511402
 30
0.0
 10
3.337984
 20
105.449531
 30
0.0
 10
3.164338
 20
110.089646
 30
0.0
 10
2.825056
 20
112.872508
 30
0.0
 10
2.229448
 20
115.670338
 30
0.0
 10
1.311498
 20
118.262962
 30
0.0
 10
0.005192
 20
120.430201
 30
0.0
  0
LWPOLYLINE
  5
104
100
AcDbEntity
  8
Layer_1
 62
7
100
AcDbPolyline
 90
17
 70
0
 10
30.003750
 20
3.003805
 30
0.0
 10
27.333006
 20
3.140929
 30
0.0
 10
24.741456
 20
3.543780
 30
0.0
 10
22.240715
 20
4.199581
 30
0.0
 10
19.842395
 20
5.095551
 30
0.0
 10
17.558108
 20
6.218912
 30
0.0
 10
15.399468
 20
7.556884
 30
0.0
 10
13.378088
 20
9.096689
 30
0.0
 10
11.505581
 20
10.825548
 30
0.0
 10
9.793560
 20
12.730682
 30
0.0
 10
8.253637
 20
14.799311
 30
0.0
 10
6.897427
 20
17.018657
 30
0.0
 10
5.736541
 20
19.375940
 30
0.0
 10
4.782593
 20
21.858381
 30
0.0
 10
4.047196
 20
24.453202
 30
0.0
 10
3.541963
 20
27.147624
 30
0.0
 10
3.278506
 20
29.928866
 30
0.0
  0
LWPOLYLINE
  5
105
100
AcDbEntity
  8
Layer_1
 62
7
100
AcDbPolyline
 90
17
 70
0
 10
56.964792
 20
30.000139
 30
0.0
 10
56.698687
 20
27.218096
 30
0.0
 10
56.185970
 20
24.521415
 30
0.0
 10
55.438944
 20
21.923081
 30
0.0
 10
54.469913
 20
19.436084
 30
0.0
 10
53.291181
 20
17.073410
 30
0.0
 10
51.915052
 20
14.848047
 30
0.0
 10
50.353830
 20
12.772983
 30
0.0
 10
48.619817
 20
10.861206
 30
0.0
 10
46.725319
 20
9.125702
 30
0.0
 10
44.682639
 20
7.579460
 30
0.0
 10
42.504081
 20
6.235467
 30
0.0
 10
40.201949
 20
5.106711
 30
0.0
 10
37.788545
 20
4.206179
 30
0.0
 10
35.276175
 20
3.546859
 30
0.0
 10
32.677142
 20
3.141739
 30
0.0
 10
30.003750
 20
3.003805
 30
0.0
  0
LWPOLYLINE
  5
106
100
AcDbEntity
  8
Layer_1
 62
7
100
AcDbPolyline
 90
3
 70
0
 10
56.486123
 20
34.846625
 30
0.0
 10
57.000322
 20
30.953823
 30
0.0
 10
56.964792
 20
30.000139
 30
0.0
  0
ENDSEC
  0
SECTION
  2
OBJECTS
  0
DICTIONARY
  5
C
330
0
100
AcDbDictionary
  3
ACAD_GROUP
350
D
  3
ACAD_MLINESTYLE
350
17
  0
DICTIONARY
  5
D
330
C
100
AcDbDictionary
  0
DICTIONARY
  5
1A
330
C
100
AcDbDictionary
  0
DICTIONARY
  5
17
330
C
100
AcDbDictionary
  3
STANDARD
350
18
  0
DICTIONARY
  5
19
330
C
100
AcDbDictionary
  0
ENDSEC
  0
EOF
